PathFileType	4	(X/Y/Z)	 s06c0103.trc
DataRate	CameraRate	NumFrames	NumMarkers	Units	OrigDataRate	OrigDataStartFrame	OrigNumFrames
200	200	4	48	mm	200	1751	2000
Frame#	Time	racr			lacr			c7			jug			rlel			rdr			llel			ldr			s2			lic			ric			lasi			rasi			rpsi			lpsi			rgt			lgt			rth1			rth2			rth3			rth4			rlfc			rmfc			rsh1			rsh2			rsh3			rsh4			rlmal			rcal			rtoe			rmt5			lth1			lth2			lth4			lth3			llfc			lmfc			llmal			lcal			lmt5			lsh1			lsh2			lsh3			lsh4			ltoe			SBIKE			LBIKE			RBIKE			
		X1	Y1	Z1	X2	Y2	Z2	X3	Y3	Z3	X4	Y4	Z4	X5	Y5	Z5	X6	Y6	Z6	X7	Y7	Z7	X8	Y8	Z8	X9	Y9	Z9	X10	Y10	Z10	X11	Y11	Z11	X12	Y12	Z12	X13	Y13	Z13	X14	Y14	Z14	X15	Y15	Z15	X16	Y16	Z16	X17	Y17	Z17	X18	Y18	Z18	X19	Y19	Z19	X20	Y20	Z20	X21	Y21	Z21	X22	Y22	Z22	X23	Y23	Z23	X24	Y24	Z24	X25	Y25	Z25	X26	Y26	Z26	X27	Y27	Z27	X28	Y28	Z28	X29	Y29	Z29	X30	Y30	Z30	X31	Y31	Z31	X32	Y32	Z32	X33	Y33	Z33	X34	Y34	Z34	X35	Y35	Z35	X36	Y36	Z36	X37	Y37	Z37	X38	Y38	Z38	X39	Y39	Z39	X40	Y40	Z40	X41	Y41	Z41	X42	Y42	Z42	X43	Y43	Z43	X44	Y44	Z44	X45	Y45	Z45	X46	Y46	Z46	X47	Y47	Z47	X48	Y48	Z48	
1751	8.7550	471.703135	1340.435608	-88.235225	478.400464	1326.570995	-395.322859	466.577806	1400.708883	-243.796914	473.596895	1244.146149	-230.683812	545.911736	1100.020898	3.636775	722.113458	915.246141	-49.977385	514.929642	1070.671309	-472.999194	707.240279	925.225500	-394.618674	-38.081485	1123.084471	-227.095040	123.528996	1107.206823	-396.362023	117.348729	1103.483651	-62.025924	136.713988	1061.848637	-354.850446	149.166750	1063.525405	-95.680227	-10.856857	1160.685038	-192.955198	-11.170497	1161.207783	-253.608027	77.817306	1005.277999	-33.528308	100.175971	1061.512737	-423.200565	154.468277	888.354968	-9.176793	217.763602	823.619846	-13.253316	238.831670	739.414733	-21.597828	246.594702	842.077710	-30.568418	271.384961	639.842484	-41.569678	262.835295	613.994213	-151.478377	252.006275	523.417779	-14.464787	259.069996	437.789540	-33.909447	225.693374	357.360679	-36.080051	280.944442	438.421038	-67.679066	207.134188	278.617967	-42.850980	143.446783	280.079470	-92.901015	376.685095	130.777295	-95.261496	281.616759	158.663900	-25.447265	178.129473	993.298064	-429.238982	265.258293	989.502868	-424.663226	276.278995	1022.854985	-409.713627	340.549071	940.899862	-423.861698	419.083057	863.254801	-389.992696	421.676371	854.610029	-270.224714	139.887310	620.364793	-368.817630	66.069879	635.643014	-320.215040	193.631012	488.972305	-396.801116	351.211757	782.897985	-406.203693	301.495200	715.409149	-383.444333	221.560238	675.389276	-381.048542	318.577824	703.104230	-349.948627	267.278361	440.435507	-340.686013	-205.212239	867.190683	-203.377186	-52.243912	83.849356	-410.417891	-50.945229	80.613220	-12.715839	
1752	8.7600	471.657255	1340.792039	-88.175971	478.273295	1327.142554	-395.388398	466.361423	1401.209794	-243.836275	473.621508	1244.545192	-230.773398	546.100316	1100.410056	3.428803	722.146456	915.221027	-49.991293	515.176158	1071.188631	-472.832130	707.262624	925.294380	-394.659071	-38.047950	1123.174926	-227.485002	123.726927	1107.441563	-396.516278	117.435774	1103.529104	-62.076784	136.536063	1061.736323	-355.268210	149.208817	1063.357266	-95.685116	-9.002783	1160.811931	-193.924300	-11.122779	1161.328665	-253.855578	77.730072	1005.178705	-33.673594	100.257416	1062.707802	-423.138414	153.638290	887.685986	-9.384565	216.452347	822.358731	-13.262974	236.649523	738.026208	-21.473987	245.413847	840.515049	-30.622681	268.071714	637.983574	-41.683314	259.185344	612.042754	-151.571954	248.154807	521.865863	-14.488757	254.591643	436.170693	-33.876982	220.664340	355.988184	-35.782426	276.397575	436.541584	-67.568200	201.703690	277.169779	-42.561925	138.066236	279.698760	-92.540745	369.119142	126.689274	-95.220581	274.535202	156.054396	-25.260246	178.337448	995.308957	-429.294272	265.472157	992.434501	-424.483658	276.127244	1025.727555	-409.465228	341.220627	944.562639	-423.635045	420.479991	867.777829	-389.466897	423.339181	858.903719	-269.629603	143.122189	622.192754	-368.690916	68.653007	635.306406	-320.300174	200.397981	492.209374	-396.421159	353.249389	787.164003	-405.637135	304.042011	718.987888	-382.859651	224.409870	678.840021	-381.370238	321.395077	706.660216	-349.624448	275.573210	446.036270	-340.578573	-205.225573	867.182495	-203.384574	-52.245087	83.842318	-410.414484	-50.967058	80.602814	-12.714556	
1753	8.7650	471.598596	1341.231762	-88.178732	478.203296	1327.718289	-395.435942	466.186094	1401.673310	-243.915995	473.648787	1244.978389	-230.848319	546.265601	1100.708866	3.227223	722.180341	915.190041	-50.015312	515.391237	1071.808324	-472.701654	707.286429	925.349038	-394.625222	-37.998214	1123.305145	-227.742897	123.883555	1107.708370	-396.710347	117.549569	1103.595606	-62.148929	136.366554	1061.683275	-355.718403	149.210391	1063.192812	-95.652867	-8.991773	1160.816341	-194.043898	-11.064961	1161.473294	-254.068144	77.624660	1005.155379	-33.773282	100.316113	1063.841609	-423.139553	152.930669	886.985314	-9.466801	215.221136	821.207333	-13.267781	234.661346	736.667420	-21.507786	244.235021	839.249451	-30.901233	264.968860	636.321231	-41.837019	255.673309	610.266597	-151.730264	244.327832	520.512447	-14.502386	250.132236	434.718605	-33.773198	215.513135	354.835047	-35.526867	271.858133	434.916963	-67.523422	196.100485	275.983604	-42.183616	132.484669	279.480432	-92.157343	361.445918	123.254317	-95.189649	267.340662	153.882023	-25.059119	178.433414	997.297426	-429.272311	265.547753	995.163269	-424.288003	275.886968	1028.596001	-409.206803	341.713164	948.063180	-423.377777	421.598979	872.071127	-388.722862	424.796558	863.198466	-269.012727	146.458320	623.517678	-368.608236	71.420723	634.521384	-320.445108	207.342954	495.145077	-396.454905	355.303661	791.207741	-405.442990	306.684317	722.236223	-382.959284	227.278340	681.558702	-381.435620	323.893387	709.842319	-349.381852	283.562561	450.969704	-340.660735	-205.245409	867.181170	-203.400166	-52.245909	83.841628	-410.422149	-50.997554	80.560019	-12.660467	
1754	8.7700	471.533804	1341.681169	-88.168713	478.123521	1328.353457	-395.410718	466.021020	1402.153553	-243.917586	473.691273	1245.539006	-230.842477	546.452230	1100.912808	3.002487	722.215154	915.156515	-50.064149	515.820212	1072.313269	-472.229925	707.293766	925.408445	-394.614328	-38.027213	1123.475023	-227.889082	123.857616	1107.854266	-396.993339	117.592294	1103.813363	-62.191582	135.955894	1061.430140	-356.337018	149.211936	1063.102216	-95.617777	-8.919298	1160.965273	-194.246659	-11.451232	1161.872453	-253.498708	77.553998	1005.193144	-33.832030	100.334668	1065.196940	-423.179379	152.423546	886.599305	-9.584783	214.095663	820.261585	-13.425053	232.820449	735.439609	-21.597122	243.207348	837.904120	-31.150587	262.124825	634.920792	-41.978140	252.445978	608.719962	-151.903543	240.537564	519.363865	-14.545882	245.635427	433.555512	-33.641680	210.311053	353.816678	-35.275559	266.724230	433.371454	-67.319485	190.369926	274.969066	-42.066723	126.791864	279.369178	-91.605407	353.734874	120.413641	-95.225976	260.091054	152.062760	-24.910889	178.441244	999.181249	-429.253150	265.530891	997.840696	-424.068068	275.594921	1031.312744	-408.842908	342.148379	951.271526	-423.078112	422.528035	875.998753	-387.901777	425.126750	868.230703	-267.157806	150.169404	624.218125	-368.611073	74.649967	633.378768	-320.484912	214.172676	497.648398	-396.602606	356.994448	795.001760	-404.854426	309.147470	725.316401	-382.865142	230.160068	683.782564	-381.606961	326.609089	712.951058	-349.444456	291.344590	455.255903	-340.687899	-205.269595	867.167834	-203.393479	-52.260626	83.836580	-410.410842	-50.917365	80.389297	-12.882346	
